<svg width="588" height="77" viewBox="0 0 588 77" fill="none" xmlns="http://www.w3.org/2000/svg">
<path d="M36.7344 53.8672V60H6.61719V53.8672H36.7344ZM8.14062 3.125V60H0.601562V3.125H8.14062ZM32.75 27.5781V33.7109H6.61719V27.5781H32.75ZM36.3438 3.125V9.29688H6.61719V3.125H36.3438ZM49.8594 17.7344L59.1172 33.125L68.4922 17.7344H76.9688L63.1406 38.5938L77.3984 60H69.0391L59.2734 44.1406L49.5078 60H41.1094L55.3281 38.5938L41.5391 17.7344H49.8594ZM91.8906 25.8594V76.25H84.625V17.7344H91.2656L91.8906 25.8594ZM120.367 38.5156V39.3359C120.367 42.4089 120.003 45.2604 119.273 47.8906C118.544 50.4948 117.477 52.7604 116.07 54.6875C114.69 56.6146 112.984 58.112 110.953 59.1797C108.922 60.2474 106.591 60.7812 103.961 60.7812C101.279 60.7812 98.9089 60.3385 96.8516 59.4531C94.7943 58.5677 93.0495 57.2786 91.6172 55.5859C90.1849 53.8932 89.0391 51.862 88.1797 49.4922C87.3464 47.1224 86.7734 44.4531 86.4609 41.4844V37.1094C86.7734 33.9844 87.3594 31.1849 88.2188 28.7109C89.0781 26.237 90.2109 24.1276 91.6172 22.3828C93.0495 20.612 94.7812 19.2708 96.8125 18.3594C98.8438 17.4219 101.188 16.9531 103.844 16.9531C106.5 16.9531 108.857 17.474 110.914 18.5156C112.971 19.5312 114.703 20.9896 116.109 22.8906C117.516 24.7917 118.57 27.0703 119.273 29.7266C120.003 32.3568 120.367 35.2865 120.367 38.5156ZM113.102 39.3359V38.5156C113.102 36.4062 112.88 34.4271 112.438 32.5781C111.995 30.7031 111.305 29.0625 110.367 27.6562C109.456 26.224 108.284 25.1042 106.852 24.2969C105.419 23.4635 103.714 23.0469 101.734 23.0469C99.9115 23.0469 98.3229 23.3594 96.9688 23.9844C95.6406 24.6094 94.5078 25.4557 93.5703 26.5234C92.6328 27.5651 91.8646 28.763 91.2656 30.1172C90.6927 31.4453 90.263 32.8255 89.9766 34.2578V44.375C90.4974 46.1979 91.2266 47.9167 92.1641 49.5312C93.1016 51.1198 94.3516 52.4089 95.9141 53.3984C97.4766 54.362 99.4427 54.8438 101.812 54.8438C103.766 54.8438 105.445 54.4401 106.852 53.6328C108.284 52.7995 109.456 51.6667 110.367 50.2344C111.305 48.8021 111.995 47.1615 112.438 45.3125C112.88 43.4375 113.102 41.4453 113.102 39.3359ZM137.438 0V60H130.172V0H137.438ZM147.125 39.3359V38.4375C147.125 35.3906 147.568 32.5651 148.453 29.9609C149.339 27.3307 150.615 25.0521 152.281 23.125C153.948 21.1719 155.966 19.6615 158.336 18.5938C160.706 17.5 163.362 16.9531 166.305 16.9531C169.273 16.9531 171.943 17.5 174.312 18.5938C176.708 19.6615 178.74 21.1719 180.406 23.125C182.099 25.0521 183.388 27.3307 184.273 29.9609C185.159 32.5651 185.602 35.3906 185.602 38.4375V39.3359C185.602 42.3828 185.159 45.2083 184.273 47.8125C183.388 50.4167 182.099 52.6953 180.406 54.6484C178.74 56.5755 176.721 58.0859 174.352 59.1797C172.008 60.2474 169.352 60.7812 166.383 60.7812C163.414 60.7812 160.745 60.2474 158.375 59.1797C156.005 58.0859 153.974 56.5755 152.281 54.6484C150.615 52.6953 149.339 50.4167 148.453 47.8125C147.568 45.2083 147.125 42.3828 147.125 39.3359ZM154.352 38.4375V39.3359C154.352 41.4453 154.599 43.4375 155.094 45.3125C155.589 47.1615 156.331 48.8021 157.32 50.2344C158.336 51.6667 159.599 52.7995 161.109 53.6328C162.62 54.4401 164.378 54.8438 166.383 54.8438C168.362 54.8438 170.094 54.4401 171.578 53.6328C173.089 52.7995 174.339 51.6667 175.328 50.2344C176.318 48.8021 177.06 47.1615 177.555 45.3125C178.076 43.4375 178.336 41.4453 178.336 39.3359V38.4375C178.336 36.3542 178.076 34.388 177.555 32.5391C177.06 30.6641 176.305 29.0104 175.289 27.5781C174.299 26.1198 173.049 24.974 171.539 24.1406C170.055 23.3073 168.31 22.8906 166.305 22.8906C164.326 22.8906 162.581 23.3073 161.07 24.1406C159.586 24.974 158.336 26.1198 157.32 27.5781C156.331 29.0104 155.589 30.6641 155.094 32.5391C154.599 34.388 154.352 36.3542 154.352 38.4375ZM201.891 24.375V60H194.664V17.7344H201.695L201.891 24.375ZM215.094 17.5L215.055 24.2188C214.456 24.0885 213.883 24.0104 213.336 23.9844C212.815 23.9323 212.216 23.9062 211.539 23.9062C209.872 23.9062 208.401 24.1667 207.125 24.6875C205.849 25.2083 204.768 25.9375 203.883 26.875C202.997 27.8125 202.294 28.9323 201.773 30.2344C201.279 31.5104 200.953 32.9167 200.797 34.4531L198.766 35.625C198.766 33.0729 199.013 30.6771 199.508 28.4375C200.029 26.1979 200.823 24.2188 201.891 22.5C202.958 20.7552 204.312 19.401 205.953 18.4375C207.62 17.4479 209.599 16.9531 211.891 16.9531C212.411 16.9531 213.01 17.0182 213.688 17.1484C214.365 17.2526 214.833 17.3698 215.094 17.5ZM238.531 60.7812C235.589 60.7812 232.919 60.2865 230.523 59.2969C228.154 58.2812 226.109 56.862 224.391 55.0391C222.698 53.2161 221.396 51.0547 220.484 48.5547C219.573 46.0547 219.117 43.3203 219.117 40.3516V38.7109C219.117 35.2734 219.625 32.2135 220.641 29.5312C221.656 26.8229 223.036 24.5312 224.781 22.6562C226.526 20.7812 228.505 19.362 230.719 18.3984C232.932 17.4349 235.224 16.9531 237.594 16.9531C240.615 16.9531 243.219 17.474 245.406 18.5156C247.62 19.5573 249.43 21.0156 250.836 22.8906C252.242 24.7396 253.284 26.9271 253.961 29.4531C254.638 31.9531 254.977 34.6875 254.977 37.6562V40.8984H223.414V35H247.75V34.4531C247.646 32.5781 247.255 30.7552 246.578 28.9844C245.927 27.2135 244.885 25.7552 243.453 24.6094C242.021 23.4635 240.068 22.8906 237.594 22.8906C235.953 22.8906 234.443 23.2422 233.062 23.9453C231.682 24.6224 230.497 25.638 229.508 26.9922C228.518 28.3464 227.75 30 227.203 31.9531C226.656 33.9062 226.383 36.1589 226.383 38.7109V40.3516C226.383 42.3568 226.656 44.2448 227.203 46.0156C227.776 47.7604 228.596 49.2969 229.664 50.625C230.758 51.9531 232.073 52.9948 233.609 53.75C235.172 54.5052 236.943 54.8828 238.922 54.8828C241.474 54.8828 243.635 54.362 245.406 53.3203C247.177 52.2786 248.727 50.8854 250.055 49.1406L254.43 52.6172C253.518 53.9974 252.359 55.3125 250.953 56.5625C249.547 57.8125 247.815 58.8281 245.758 59.6094C243.727 60.3906 241.318 60.7812 238.531 60.7812ZM270.641 24.375V60H263.414V17.7344H270.445L270.641 24.375ZM283.844 17.5L283.805 24.2188C283.206 24.0885 282.633 24.0104 282.086 23.9844C281.565 23.9323 280.966 23.9062 280.289 23.9062C278.622 23.9062 277.151 24.1667 275.875 24.6875C274.599 25.2083 273.518 25.9375 272.633 26.875C271.747 27.8125 271.044 28.9323 270.523 30.2344C270.029 31.5104 269.703 32.9167 269.547 34.4531L267.516 35.625C267.516 33.0729 267.763 30.6771 268.258 28.4375C268.779 26.1979 269.573 24.2188 270.641 22.5C271.708 20.7552 273.062 19.401 274.703 18.4375C276.37 17.4479 278.349 16.9531 280.641 16.9531C281.161 16.9531 281.76 17.0182 282.438 17.1484C283.115 17.2526 283.583 17.3698 283.844 17.5ZM355.211 3.125V60H347.633L319 16.1328V60H311.461V3.125H319L347.75 47.1094V3.125H355.211ZM375.289 17.7344V60H368.062V17.7344H375.289ZM367.828 11.5625L375.406 0.078125H384.117L373.648 11.5625H367.828ZM400.172 53.4766L411.734 17.7344H419.117L403.922 60H399.078L400.172 53.4766ZM390.523 17.7344L402.438 53.6719L403.258 60H398.414L383.102 17.7344H390.523ZM443.062 60.7812C440.12 60.7812 437.451 60.2865 435.055 59.2969C432.685 58.2812 430.641 56.862 428.922 55.0391C427.229 53.2161 425.927 51.0547 425.016 48.5547C424.104 46.0547 423.648 43.3203 423.648 40.3516V38.7109C423.648 35.2734 424.156 32.2135 425.172 29.5312C426.188 26.8229 427.568 24.5312 429.312 22.6562C431.057 20.7812 433.036 19.362 435.25 18.3984C437.464 17.4349 439.755 16.9531 442.125 16.9531C445.146 16.9531 447.75 17.474 449.938 18.5156C452.151 19.5573 453.961 21.0156 455.367 22.8906C456.773 24.7396 457.815 26.9271 458.492 29.4531C459.169 31.9531 459.508 34.6875 459.508 37.6562V40.8984H427.945V35H452.281V34.4531C452.177 32.5781 451.786 30.7552 451.109 28.9844C450.458 27.2135 449.417 25.7552 447.984 24.6094C446.552 23.4635 444.599 22.8906 442.125 22.8906C440.484 22.8906 438.974 23.2422 437.594 23.9453C436.214 24.6224 435.029 25.638 434.039 26.9922C433.049 28.3464 432.281 30 431.734 31.9531C431.188 33.9062 430.914 36.1589 430.914 38.7109V40.3516C430.914 42.3568 431.188 44.2448 431.734 46.0156C432.307 47.7604 433.128 49.2969 434.195 50.625C435.289 51.9531 436.604 52.9948 438.141 53.75C439.703 54.5052 441.474 54.8828 443.453 54.8828C446.005 54.8828 448.167 54.362 449.938 53.3203C451.708 52.2786 453.258 50.8854 454.586 49.1406L458.961 52.6172C458.049 53.9974 456.891 55.3125 455.484 56.5625C454.078 57.8125 452.346 58.8281 450.289 59.6094C448.258 60.3906 445.849 60.7812 443.062 60.7812ZM475.797 0V60H468.531V0H475.797ZM542.164 27.0312V35.7031C542.164 40.3646 541.747 44.2969 540.914 47.5C540.081 50.7031 538.883 53.2812 537.32 55.2344C535.758 57.1875 533.87 58.6068 531.656 59.4922C529.469 60.3516 526.995 60.7812 524.234 60.7812C522.047 60.7812 520.029 60.5078 518.18 59.9609C516.331 59.4141 514.664 58.5417 513.18 57.3438C511.721 56.1198 510.471 54.5312 509.43 52.5781C508.388 50.625 507.594 48.2552 507.047 45.4688C506.5 42.6823 506.227 39.4271 506.227 35.7031V27.0312C506.227 22.3698 506.643 18.4635 507.477 15.3125C508.336 12.1615 509.547 9.63542 511.109 7.73438C512.672 5.80729 514.547 4.42708 516.734 3.59375C518.948 2.76042 521.422 2.34375 524.156 2.34375C526.37 2.34375 528.401 2.61719 530.25 3.16406C532.125 3.6849 533.792 4.53125 535.25 5.70312C536.708 6.84896 537.945 8.38542 538.961 10.3125C540.003 12.2135 540.797 14.5443 541.344 17.3047C541.891 20.0651 542.164 23.3073 542.164 27.0312ZM534.898 36.875V25.8203C534.898 23.2682 534.742 21.0286 534.43 19.1016C534.143 17.1484 533.714 15.4818 533.141 14.1016C532.568 12.7214 531.839 11.6016 530.953 10.7422C530.094 9.88281 529.091 9.25781 527.945 8.86719C526.826 8.45052 525.562 8.24219 524.156 8.24219C522.438 8.24219 520.914 8.56771 519.586 9.21875C518.258 9.84375 517.138 10.8464 516.227 12.2266C515.341 13.6068 514.664 15.4167 514.195 17.6562C513.727 19.8958 513.492 22.6172 513.492 25.8203V36.875C513.492 39.4271 513.635 41.6797 513.922 43.6328C514.234 45.5859 514.69 47.2786 515.289 48.7109C515.888 50.1172 516.617 51.276 517.477 52.1875C518.336 53.099 519.326 53.776 520.445 54.2188C521.591 54.6354 522.854 54.8438 524.234 54.8438C526.005 54.8438 527.555 54.5052 528.883 53.8281C530.211 53.151 531.318 52.0964 532.203 50.6641C533.115 49.2057 533.792 47.3438 534.234 45.0781C534.677 42.7865 534.898 40.0521 534.898 36.875ZM579.195 3.04688H579.82V9.17969H579.195C575.367 9.17969 572.164 9.80469 569.586 11.0547C567.008 12.2786 564.964 13.9323 563.453 16.0156C561.943 18.0729 560.849 20.3906 560.172 22.9688C559.521 25.5469 559.195 28.1641 559.195 30.8203V39.1797C559.195 41.7057 559.495 43.9453 560.094 45.8984C560.693 47.8255 561.513 49.4531 562.555 50.7812C563.596 52.1094 564.768 53.112 566.07 53.7891C567.398 54.4661 568.779 54.8047 570.211 54.8047C571.878 54.8047 573.362 54.4922 574.664 53.8672C575.966 53.2161 577.06 52.3177 577.945 51.1719C578.857 50 579.547 48.6198 580.016 47.0312C580.484 45.4427 580.719 43.6979 580.719 41.7969C580.719 40.1042 580.51 38.4766 580.094 36.9141C579.677 35.3255 579.039 33.9193 578.18 32.6953C577.32 31.4453 576.24 30.4688 574.938 29.7656C573.661 29.0365 572.138 28.6719 570.367 28.6719C568.362 28.6719 566.487 29.1667 564.742 30.1562C563.023 31.1198 561.604 32.3958 560.484 33.9844C559.391 35.5469 558.766 37.2526 558.609 39.1016L554.781 39.0625C555.146 36.1458 555.823 33.6589 556.812 31.6016C557.828 29.5182 559.078 27.8255 560.562 26.5234C562.073 25.1953 563.753 24.2318 565.602 23.6328C567.477 23.0078 569.456 22.6953 571.539 22.6953C574.378 22.6953 576.826 23.2292 578.883 24.2969C580.94 25.3646 582.633 26.7969 583.961 28.5938C585.289 30.3646 586.266 32.3698 586.891 34.6094C587.542 36.8229 587.867 39.1016 587.867 41.4453C587.867 44.1276 587.49 46.6406 586.734 48.9844C585.979 51.3281 584.846 53.3854 583.336 55.1562C581.852 56.9271 580.016 58.3073 577.828 59.2969C575.641 60.2865 573.102 60.7812 570.211 60.7812C567.138 60.7812 564.456 60.1562 562.164 58.9062C559.872 57.6302 557.971 55.9375 556.461 53.8281C554.951 51.7188 553.818 49.375 553.062 46.7969C552.307 44.2188 551.93 41.6016 551.93 38.9453V35.5469C551.93 31.5365 552.333 27.6042 553.141 23.75C553.948 19.8958 555.341 16.4062 557.32 13.2812C559.326 10.1562 562.099 7.66927 565.641 5.82031C569.182 3.97135 573.701 3.04688 579.195 3.04688Z" fill="white"/>
</svg>
